<svg xmlns="http://www.w3.org/2000/svg" viewBox="0 0 135.42 163.86"><defs><style>.cls-1{fill:#fff;}</style></defs><title>logo</title><g id="Layer_2_copy" data-name="Layer 2 copy"><path class="cls-1" d="M140.11,40.83s11,10.33,13.5,18.33c0,0,1,6.57,1.33,7.5s9.47,9.06,9.67,9.33,2,3.5.67,5.83a8.31,8.31,0,0,1-3,2.5l-1.67.67s-1.17.5,0,3c0,0,.67,3,1.5,3.67a3.58,3.58,0,0,1-.67,2.5,3.66,3.66,0,0,0-1,1.27,7,7,0,0,1,1.25,1.5c.19.5.06,2.44-.94,3.06L158,103.19a6.69,6.69,0,0,0,.75,2.25s1.31,5.06-2.44,7.56c0,0,.5,1.25-10.5,2.5l-10.25.88s-2.37-.37-5.87,3.5c0,0-3.37,1.75-4,13.88,0,0,.38,1.75,9.62,18.5,0,0,1.5,6.13-7.25,2,0,0-3.5-2.5-10.12-9.75a51.51,51.51,0,0,0-10.75-9.25l2.38-30.12L112,78.25,115.86,46l12.62-7.5,5.5-.87Z" transform="translate(-30.35 -25.03)"/></g><g id="Layer_3_copy" data-name="Layer 3 copy"><path class="cls-1" d="M140.11,40.83s3.5-5.58-2-8.58c0,0-3-7.25-7.25-4.75,0,0-5.75-1-6,.5,0,0-2.25-7-7.5.5,0,0-9.25-3.25-15,3.25,0,0-3.75,1.62-4.75,1.18,0,0-7.12-3.31-10.5,5.57,0,0-2.87,1.63-3.87.38,0,0-2.75-.37-4.12,4.25,0,0-6.62,1.5-6.37,7.88,0,0-2.25-1.62-5.12,1.13,0,0-3.75-.12-3.5,6.88,0,0-.25,1.38-2.62,1,0,0-3.62-1.5-3.5,6.5,0,0-5.25-.37-4.62,9.25,0,0,0,2.13-4.62,3.75,0,0-4.12,2-1.87,11.63,0,0-5.08,2.21-1.92,12,0,0,.17,2.17-2.67,3.83s0,9.33,0,9.33A13.88,13.88,0,0,1,41,125c-2.24,4,1.26,4.67-2.41,5.83s-4.5,7.83,0,9.5c0,0-9.14,3.5-3.07,14a8.44,8.44,0,0,1-3.43,10c-5.83,3.83,4.67,6.67,4.67,6.67s.17,3.5-1.83,5,2,5.17,3.67,5.33,9,3.83,7.33,6.67,7.83-2,7.83-2,28.17-25.17,38.5-52.83c0,0,7.17-4.09,15,2.08S140.11,40.83,140.11,40.83Z" transform="translate(-30.35 -25.03)"/></g></svg>